# xmcd CD database file
#
# Track frame offsets:
#	150
#	36693
#	63695
#	95003
#	126978
#	152750
#	175930
#	197743
#	216120
#	249715
#	290498
#
# Disc length: 4254 seconds
#
# Revision: 0
# Processed by: cddbd v1.5.1PL0 Copyright (c) Steve Scherf et al.
# Submitted via: CDex 1.51
#
DISCID=b1109c0b
DTITLE=George Benson - THIS MASQUARADE
DYEAR=1900
DGENRE=Jazz
TTITLE0=THIS MASQUARADE
TTITLE1=LADY
TTITLE2=AFFIRMATION
TTITLE3=SO THIS IS LOVE?
TTITLE4=BREZIN'
TTITLE5=SIX TO FOUR
TTITLE6=GOLDEN SLUNBERS - YOU NEVER GIVE ME YOUR MONEY
TTITLE7=OH! DARING
TTITLE8=BECAUSE - COME TOGETHER
TTITLE9=HERE COMES THE SUN - I WANT YOU (SHE'S SO HEAVY
TTITLE10=SOMETHING - OCTOPUS'S GARDEN - THE END
EXTD=
EXTT0=
EXTT1=
EXTT2=
EXTT3=
EXTT4=
EXTT5=
EXTT6=
EXTT7=
EXTT8=
EXTT9=
EXTT10=
PLAYORDER=
